<svg width="216" height="46" viewBox="0 0 216 46" fill="none" xmlns="http://www.w3.org/2000/svg">
<rect width="216" height="46" fill="#F5F5F5"/>
<rect width="216" height="46" fill="#3A0519"/>
<path d="M141 35.7178C141 33.7946 142.674 32.2986 144.588 32.5116L202.211 38.9274C209.53 39.7425 215.723 33.578 214.932 26.2659C214.107 18.6697 206.23 13.975 199.143 16.8581L145.45 38.7052C143.325 39.5697 141 38.0088 141 35.7178Z" fill="url(#paint0_linear_2_2)"/>
<path d="M13.928 31V21.688L5.352 7.96H11.272L18.056 20.152H15.272L22.024 7.96H27.432L18.856 21.688V31H13.928ZM36.0983 31C35.9703 30.5307 35.8743 30.0293 35.8103 29.496C35.7676 28.9627 35.7463 28.344 35.7463 27.64H35.6183V19.928C35.6183 19.2667 35.3943 18.7547 34.9463 18.392C34.5196 18.008 33.8796 17.816 33.0263 17.816C32.2156 17.816 31.5649 17.9547 31.0743 18.232C30.6049 18.5093 30.2956 18.9147 30.1463 19.448H25.5703C25.7836 17.976 26.5409 16.76 27.8423 15.8C29.1436 14.84 30.9249 14.36 33.1863 14.36C35.5329 14.36 37.3249 14.8827 38.5623 15.928C39.7996 16.9733 40.4183 18.4773 40.4183 20.44V27.64C40.4183 28.1733 40.4503 28.7173 40.5143 29.272C40.5996 29.8053 40.7276 30.3813 40.8983 31H36.0983ZM30.4023 31.32C28.7809 31.32 27.4903 30.9147 26.5303 30.104C25.5703 29.272 25.0903 28.1733 25.0903 26.808C25.0903 25.2933 25.6556 24.0773 26.7863 23.16C27.9383 22.2213 29.5383 21.6133 31.5863 21.336L36.3543 20.664V23.448L32.3863 24.056C31.5329 24.184 30.9036 24.4187 30.4983 24.76C30.0929 25.1013 29.8903 25.5707 29.8903 26.168C29.8903 26.7013 30.0823 27.1067 30.4663 27.384C30.8503 27.6613 31.3623 27.8 32.0023 27.8C33.0049 27.8 33.8583 27.5333 34.5623 27C35.2663 26.4453 35.6183 25.8053 35.6183 25.08L36.0663 27.64C35.5969 28.856 34.8823 29.7733 33.9223 30.392C32.9623 31.0107 31.7889 31.32 30.4023 31.32ZM50.262 31.32C47.8727 31.32 45.974 30.84 44.566 29.88C43.158 28.92 42.39 27.5973 42.262 25.912H46.55C46.6567 26.6373 47.0193 27.192 47.638 27.576C48.278 27.9387 49.1527 28.12 50.262 28.12C51.2647 28.12 51.99 27.9813 52.438 27.704C52.9073 27.4053 53.142 26.9893 53.142 26.456C53.142 26.0507 53.0033 25.7413 52.726 25.528C52.47 25.2933 51.99 25.1013 51.286 24.952L48.662 24.408C46.7207 24.0027 45.2913 23.3947 44.374 22.584C43.4567 21.752 42.998 20.6853 42.998 19.384C42.998 17.8053 43.606 16.5787 44.822 15.704C46.038 14.808 47.734 14.36 49.91 14.36C52.0647 14.36 53.782 14.7973 55.062 15.672C56.342 16.5253 57.046 17.72 57.174 19.256H52.886C52.8007 18.7013 52.502 18.2853 51.99 18.008C51.478 17.7093 50.7527 17.56 49.814 17.56C48.9607 17.56 48.3207 17.688 47.894 17.944C47.4887 18.1787 47.286 18.52 47.286 18.968C47.286 19.352 47.4567 19.6613 47.798 19.896C48.1393 20.1093 48.7047 20.3013 49.494 20.472L52.438 21.08C54.0807 21.4213 55.318 22.0613 56.15 23C57.0033 23.9173 57.43 25.0053 57.43 26.264C57.43 27.864 56.8007 29.112 55.542 30.008C54.3047 30.8827 52.5447 31.32 50.262 31.32ZM59.795 31V7.96H64.595V31H59.795ZM71.155 31V20.888C71.155 19.992 70.9203 19.32 70.451 18.872C70.003 18.424 69.3417 18.2 68.467 18.2C67.7203 18.2 67.0483 18.3707 66.451 18.712C65.875 19.0533 65.4163 19.5227 65.075 20.12C64.755 20.7173 64.595 21.4213 64.595 22.232L64.179 18.296C64.7123 17.1013 65.491 16.152 66.515 15.448C67.5603 14.7227 68.8403 14.36 70.355 14.36C72.1683 14.36 73.555 14.872 74.515 15.896C75.475 16.8987 75.955 18.2533 75.955 19.96V31H71.155ZM79.42 31V14.68H84.22V31H79.42ZM79.26 12.504V7.32H84.38V12.504H79.26ZM88.045 31V7.96H92.845V31H88.045ZM98.509 31L91.725 22.52L98.349 14.68H103.885L96.109 23.256L96.333 21.752L104.205 31H98.509ZM115.598 31C115.47 30.5307 115.374 30.0293 115.31 29.496C115.268 28.9627 115.246 28.344 115.246 27.64H115.118V19.928C115.118 19.2667 114.894 18.7547 114.446 18.392C114.02 18.008 113.38 17.816 112.526 17.816C111.716 17.816 111.065 17.9547 110.574 18.232C110.105 18.5093 109.796 18.9147 109.646 19.448H105.07C105.284 17.976 106.041 16.76 107.342 15.8C108.644 14.84 110.425 14.36 112.686 14.36C115.033 14.36 116.825 14.8827 118.062 15.928C119.3 16.9733 119.918 18.4773 119.918 20.44V27.64C119.918 28.1733 119.95 28.7173 120.014 29.272C120.1 29.8053 120.228 30.3813 120.398 31H115.598ZM109.902 31.32C108.281 31.32 106.99 30.9147 106.03 30.104C105.07 29.272 104.59 28.1733 104.59 26.808C104.59 25.2933 105.156 24.0773 106.286 23.16C107.438 22.2213 109.038 21.6133 111.086 21.336L115.854 20.664V23.448L111.886 24.056C111.033 24.184 110.404 24.4187 109.998 24.76C109.593 25.1013 109.39 25.5707 109.39 26.168C109.39 26.7013 109.582 27.1067 109.966 27.384C110.35 27.6613 110.862 27.8 111.502 27.8C112.505 27.8 113.358 27.5333 114.062 27C114.766 26.4453 115.118 25.8053 115.118 25.08L115.566 27.64C115.097 28.856 114.382 29.7733 113.422 30.392C112.462 31.0107 111.289 31.32 109.902 31.32ZM140.773 31.32C138.277 31.32 136.133 30.8293 134.341 29.848C132.549 28.8667 131.163 27.4907 130.181 25.72C129.221 23.9493 128.741 21.88 128.741 19.512C128.741 17.1653 129.232 15.1067 130.213 13.336C131.195 11.544 132.549 10.1467 134.277 9.144C136.027 8.14133 138.053 7.64 140.357 7.64C142.256 7.64 143.952 7.98133 145.445 8.664C146.96 9.34667 148.176 10.2853 149.093 11.48C150.032 12.6533 150.587 14.0187 150.757 15.576H145.829C145.616 14.3173 145.019 13.336 144.037 12.632C143.077 11.9067 141.872 11.544 140.421 11.544C139.077 11.544 137.904 11.864 136.901 12.504C135.899 13.1227 135.12 14.0187 134.565 15.192C134.011 16.3653 133.733 17.7733 133.733 19.416C133.733 21.1227 134.011 22.584 134.565 23.8C135.12 24.9947 135.931 25.912 136.997 26.552C138.085 27.1707 139.419 27.48 140.997 27.48C142.277 27.48 143.365 27.32 144.261 27C145.157 26.68 145.84 26.232 146.309 25.656L150.981 27.512C149.744 28.7493 148.304 29.6987 146.661 30.36C145.04 31 143.077 31.32 140.773 31.32ZM146.053 27.512V21.176L147.045 22.168H140.965V18.392H150.981V27.512H146.053ZM164.13 31C164.002 30.5307 163.906 30.0293 163.842 29.496C163.799 28.9627 163.778 28.344 163.778 27.64H163.65V19.928C163.65 19.2667 163.426 18.7547 162.978 18.392C162.551 18.008 161.911 17.816 161.058 17.816C160.247 17.816 159.596 17.9547 159.106 18.232C158.636 18.5093 158.327 18.9147 158.178 19.448H153.602C153.815 17.976 154.572 16.76 155.874 15.8C157.175 14.84 158.956 14.36 161.218 14.36C163.564 14.36 165.356 14.8827 166.594 15.928C167.831 16.9733 168.45 18.4773 168.45 20.44V27.64C168.45 28.1733 168.482 28.7173 168.546 29.272C168.631 29.8053 168.759 30.3813 168.93 31H164.13ZM158.434 31.32C156.812 31.32 155.522 30.9147 154.562 30.104C153.602 29.272 153.122 28.1733 153.122 26.808C153.122 25.2933 153.687 24.0773 154.818 23.16C155.97 22.2213 157.57 21.6133 159.618 21.336L164.386 20.664V23.448L160.418 24.056C159.564 24.184 158.935 24.4187 158.53 24.76C158.124 25.1013 157.922 25.5707 157.922 26.168C157.922 26.7013 158.114 27.1067 158.498 27.384C158.882 27.6613 159.394 27.8 160.034 27.8C161.036 27.8 161.89 27.5333 162.594 27C163.298 26.4453 163.65 25.8053 163.65 25.08L164.098 27.64C163.628 28.856 162.914 29.7733 161.954 30.392C160.994 31.0107 159.82 31.32 158.434 31.32ZM172.139 31V14.68H176.843V18.52H176.939V31H172.139ZM176.939 22.488L176.523 18.616C176.907 17.2293 177.536 16.1733 178.411 15.448C179.285 14.7227 180.373 14.36 181.675 14.36C182.08 14.36 182.379 14.4027 182.571 14.488V18.968C182.464 18.9253 182.315 18.904 182.123 18.904C181.931 18.8827 181.696 18.872 181.419 18.872C179.883 18.872 178.752 19.1493 178.027 19.704C177.301 20.2373 176.939 21.1653 176.939 22.488ZM192.159 37.88C189.897 37.88 188.052 37.4 186.623 36.44C185.215 35.48 184.383 34.1787 184.127 32.536H188.671C188.841 32.9413 189.204 33.2507 189.759 33.464C190.335 33.6773 191.06 33.784 191.935 33.784C193.385 33.784 194.441 33.5067 195.103 32.952C195.764 32.3973 196.095 31.5333 196.095 30.36V26.808L196.351 26.872C196.137 28.0667 195.519 29.016 194.495 29.72C193.471 30.4027 192.201 30.744 190.687 30.744C189.236 30.744 187.967 30.4133 186.879 29.752C185.812 29.0693 184.98 28.12 184.383 26.904C183.785 25.688 183.487 24.2587 183.487 22.616C183.487 20.952 183.796 19.5013 184.415 18.264C185.033 17.0267 185.897 16.0667 187.007 15.384C188.137 14.7013 189.449 14.36 190.943 14.36C192.479 14.36 193.727 14.7227 194.687 15.448C195.668 16.1733 196.244 17.1653 196.415 18.424L196.191 18.456V14.68H200.895V30.296C200.895 32.6427 200.116 34.488 198.559 35.832C197.001 37.1973 194.868 37.88 192.159 37.88ZM192.351 27.064C193.481 27.064 194.399 26.68 195.103 25.912C195.807 25.1227 196.159 24.0027 196.159 22.552C196.159 21.1013 195.796 19.992 195.071 19.224C194.367 18.4347 193.439 18.04 192.287 18.04C191.177 18.04 190.26 18.4347 189.535 19.224C188.831 20.0133 188.479 21.1333 188.479 22.584C188.479 24.0347 188.831 25.144 189.535 25.912C190.26 26.68 191.199 27.064 192.351 27.064Z" fill="white"/>
<defs>
<linearGradient id="paint0_linear_2_2" x1="419.157" y1="31.3212" x2="388.858" y2="125.844" gradientUnits="userSpaceOnUse">
<stop stop-color="#DF8908"/>
<stop offset="1" stop-color="#B415FF"/>
</linearGradient>
</defs>
</svg>
